<svg xmlns="http://www.w3.org/2000/svg" xmlns:xlink="http://www.w3.org/1999/xlink" version="1.1" x="0px" y="0px" viewBox="0 0 100 100" style="enable-background:new 0 0 100 100;" xml:space="preserve"><g><path fill="#e84a99" d="M87,65.7c-4.4-4.4-10.4-6.5-16.6-5.9l-4.1,0.4l-29-28.7l0.4-4.7c0.5-6-1.7-12-6-16.3l-0.1-0.1L19.8,8.8l-2.6,2.6l11,11   l-9.6,9.6l-11-11l-2.6,2.6l1.7,11.6l0,0c4.4,4.4,10.4,6.5,16.6,5.9l4.1-0.4l29,28.7L56.1,74c-0.5,6,1.7,12,6,16.3l0.1,0.1L74,92   l2.6-2.6l-11-11l9.6-9.6l11,11l2.6-2.6L87,65.7L87,65.7z"/><path fill="#29aae2" d="M66.8,7.2c-4.4,0-8.6,1.8-11.7,4.9l-1,1l9.3,9.2L48,37.7l9.5,9.5l15.4-15.5l9.4,9.3L95,28.3L78.5,12   C75.4,8.9,71.2,7.2,66.8,7.2z"/><path fill="#29aae2" d="M8.5,77.4c-2.6,2.6-2.6,6.9,0,9.5v0c2.6,2.6,6.9,2.6,9.5,0L43.8,61l-9.5-9.5L8.5,77.4z"/></g></svg>